<svg xmlns="http://www.w3.org/2000/svg" viewBox="0 0 512 512" role="img" aria-labelledby="title desc"><title id="title">PeterHamRN shield logo</title><desc id="desc">A blue shield with a light blue ECG waveform flowing into white PH initials.</desc><defs><linearGradient id="shieldFill" x1="0" y1="0" x2="0" y2="1"><stop offset="0" stop-color="#1C5FD4"/><stop offset="0.52" stop-color="#103B8E"/><stop offset="1" stop-color="#071D49"/></linearGradient><linearGradient id="rimFill" x1="0" y1="0" x2="1" y2="1"><stop offset="0" stop-color="#FFFFFF"/><stop offset="0.45" stop-color="#D7DFEA"/><stop offset="1" stop-color="#8D9BAF"/></linearGradient></defs><path d="M256 24 C317 61 374 74 432 82 L416 278 C407 371 343 438 256 488 C169 438 105 371 96 278 L80 82 C138 74 195 61 256 24Z" fill="url(#rimFill)"/><path d="M256 40 C313 73 366 85 415 92 L400 275 C392 360 334 420 256 466 C178 420 120 360 112 275 L97 92 C146 85 199 73 256 40Z" fill="#F9FBFF"/><path d="M256 53 C308 82 357 93 402 99 L388 271 C381 348 329 403 256 446 C183 403 131 348 124 271 L110 99 C155 93 204 82 256 53Z" fill="url(#shieldFill)" stroke="#4D91FF" stroke-width="3"/><path d="M111 255 H138 L149 236 L160 272 L173 219 L186 255 H202" fill="none" stroke="#78C5FF" stroke-width="8" stroke-linecap="round" stroke-linejoin="round"/><path d="M202 255 V165 H244 C271 165 286 179 286 201 C286 224 270 238 244 238 H202 V335" fill="none" stroke="#FFFFFF" stroke-width="18" stroke-linecap="round" stroke-linejoin="round"/><path d="M286 255 H308 M308 178 V335 M308 255 H365 M365 178 V335" fill="none" stroke="#FFFFFF" stroke-width="18" stroke-linecap="round" stroke-linejoin="round"/><path d="M365 255 H378 L389 223 L401 278 L414 237 L426 255 H447" fill="none" stroke="#78C5FF" stroke-width="8" stroke-linecap="round" stroke-linejoin="round"/></svg>