<svg xmlns="http://www.w3.org/2000/svg" viewBox="0 0 178 150" width="178" height="150"><rect x="3" y="3" width="172" height="144" fill="white" stroke="#0b2f63" stroke-width="3"/><path d="M 140,48 L136,47 L132,52 L124,69 L122,76 L113,93 L94,95 L82,98 L81,96 L91,76 L106,52 L106,48 L103,47 L96,57 L95,56 L99,44 L99,30 L96,24 L88,20 L80,21 L65,29 L49,45 L42,55 L33,73 L33,79 L36,80 L36,76 L41,65 L52,49 L66,35 L79,27 L88,26 L93,31 L94,40 L90,54 L84,66 L70,84 L60,92 L55,93 L53,91 L53,85 L55,80 L59,75 L59,72 L57,72 L53,76 L52,74 L65,49 L62,46 L60,47 L39,92 L38,97 L28,120 L26,130 L28,132 L30,132 L33,129 L34,116 L38,104 L47,86 L49,93 L52,97 L54,98 L60,97 L71,90 L79,82 L88,70 L89,72 L76,98 L62,104 L57,104 L53,108 L54,110 L59,111 L63,116 L63,113 L61,110 L65,107 L71,105 L72,106 L69,112 L69,116 L67,120 L64,122 L56,142 L61,142 L66,127 L66,121 L69,119 L78,103 L92,99 L110,97 L111,99 L104,114 L96,136 L96,142 L101,142 L105,135 L105,133 L103,131 L114,102 L118,96 L124,96 L124,93 L119,91 L129,70 L140,52 Z" fill="#0b2f63"/><path d="M 7,9 L7,142 L12,142 L12,13 L13,12 L165,12 L166,13 L166,142 L170,142 L170,8 L8,8 Z" fill="#0b2f63"/></svg>